<svg xmlns="http://www.w3.org/2000/svg" viewBox="0 0 32 32" fill="none">
<path d="M11.594 1.087c-0.231 0.106-0.438 0.325-0.525 0.556-0.037 0.1-0.069 0.644-0.069 1.263v1.094l-3.681 0.013c-3.612 0.019-3.688 0.019-3.856 0.15-0.094 0.069-0.231 0.206-0.3 0.3-0.125 0.162-0.131 0.25-0.131 2.037s0.006 1.875 0.131 2.037c0.275 0.375 0.419 0.431 1.156 0.45l0.681 0.025v9.194c0 10.25-0.019 9.669 0.438 10.575 0.556 1.1 1.55 1.875 2.744 2.131 0.625 0.131 15.025 0.125 15.662-0.006 1.331-0.275 2.525-1.363 2.988-2.719l0.137-0.406 0.019-9.387 0.012-9.381 0.681-0.025c0.738-0.019 0.881-0.075 1.156-0.45 0.125-0.162 0.131-0.25 0.131-2.037s-0.006-1.875-0.131-2.037c-0.069-0.094-0.206-0.231-0.3-0.3-0.169-0.131-0.244-0.131-3.85-0.15l-3.681-0.013-0.019-1.188c-0.019-1.288-0.038-1.344-0.45-1.65-0.169-0.131-0.238-0.131-4.463-0.144-3.481-0.012-4.331 0-4.481 0.069zM19 3.5v0.5h-6v-1h6v0.5zM27 6.5v0.5h-22v-1h22v0.5zM24.988 18.262l-0.019 9.269-0.169 0.319c-0.25 0.475-0.438 0.669-0.875 0.906l-0.394 0.212h-15.063l-0.319-0.169c-0.475-0.25-0.669-0.438-0.906-0.875l-0.213-0.394-0.019-9.269-0.013-9.262h18l-0.012 9.262z"></path>
<path d="M10.594 11.088c-0.256 0.113-0.519 0.431-0.563 0.681-0.019 0.113-0.025 3.438-0.019 7.4 0.019 7.156 0.019 7.2 0.15 7.369 0.244 0.331 0.444 0.431 0.838 0.431s0.594-0.1 0.838-0.431c0.131-0.169 0.131-0.194 0.131-7.538s0-7.369-0.131-7.537c-0.069-0.094-0.2-0.231-0.287-0.294-0.206-0.156-0.706-0.2-0.956-0.081z"></path>
<path d="M15.594 11.088c-0.256 0.113-0.519 0.431-0.563 0.681-0.019 0.113-0.025 3.438-0.019 7.4 0.019 7.156 0.019 7.2 0.15 7.369 0.244 0.331 0.444 0.431 0.838 0.431s0.594-0.1 0.837-0.431c0.131-0.169 0.131-0.194 0.131-7.538s0-7.369-0.131-7.537c-0.069-0.094-0.2-0.231-0.288-0.294-0.206-0.156-0.706-0.2-0.956-0.081z"></path>
<path d="M20.594 11.088c-0.256 0.113-0.519 0.431-0.563 0.681-0.019 0.113-0.025 3.438-0.019 7.4 0.019 7.156 0.019 7.2 0.15 7.369 0.244 0.331 0.444 0.431 0.837 0.431s0.594-0.1 0.837-0.431c0.131-0.169 0.131-0.194 0.131-7.538s0-7.369-0.131-7.537c-0.069-0.094-0.2-0.231-0.288-0.294-0.206-0.156-0.706-0.2-0.956-0.081z"></path>
</svg>
